
  Lord of War 2005 Blu-ray movie 
--------------------------------------

Storyline:
This film charts the rise and fall of Yuri Orlov, from his early days in the early 

1980s in Little Odessa, selling guns to mobsters in his local neighbourhood, through to 

his ascension through the decade of excess and indulgence into the early 90s, where he 

forms a business partnership with an African warlord and his psychotic son. The film 

also charts his relationship through the years with his younger brother, his marriage 

to a famous model, his relentless pursuit by a determined federal agent and his inner 

demons that sway between his drive for success and the immorality of what he does.

More Movie info:  http://www.imdb.com/title/tt0399295/

Genre                            : Crime | Drama | Thriller
Star actors                      : Nicolas Cage, Ethan Hawke and Jared Leto
Source                           : Blu-ray
Container                        : Mp4
File size                        : 2.19 GiB
Duration                         : 2h 1mn
Overall bit rate                 : 2 574 Kbps
Encoded date                     : UTC 2011-03-30 08:04:59
Tagged date                      : UTC 2011-03-30 09:39:29
Writing application              : HandBrake 0.9.5 2011010300

Video
ID                               : 1
Format                           : AVC
Format/Info                      : Advanced Video Codec
Format profile                   : High@L3.1
Format settings, CABAC           : Yes
Format settings, ReFrames        : 6 frames
Codec ID                         : avc1
Codec ID/Info                    : Advanced Video Coding
Duration                         : 2h 1mn
Bit rate mode                    : Variable
Bit rate                         : 2 200 Kbps
Width                            : 1 280 pixels
Height                           : 528 pixels
Display aspect ratio             : 2.40:1
Frame rate mode                  : Variable
Frame rate                       : 23.976 fps
Minimum frame rate               : 23.968 fps
Maximum frame rate               : 23.981 fps
Color space                      : YUV
Chroma subsampling               : 4:2:0
Bit depth                        : 8 bits
Scan type                        : Progressive
Bits/(Pixel*Frame)               : 0.136
Stream size                      : 1.86 GiB (85%)
Writing library                  : x264 core 112
Encoding settings                : cabac=1 / ref=6 / deblock=1:0:0 / analyse=0x3:0x113 

/ me=hex / subme=9 / psy=1 / psy_rd=1.00:0.00 / mixed_ref=0 / me_range=16 / chroma_me=1 

/ trellis=1 / 8x8dct=1 / cqm=0 / deadzone=21,11 / fast_pskip=1 / chroma_qp_offset=-2 / 

threads=9 / sliced_threads=0 / nr=0 / decimate=1 / interlaced=0 / constrained_intra=0 / 

bframes=5 / b_pyramid=2 / b_adapt=2 / b_bias=0 / direct=1 / weightb=0 / open_gop=0 / 

weightp=2 / keyint=240 / keyint_min=23 / scenecut=40 / intra_refresh=0 / 

rc_lookahead=40 / rc=abr / mbtree=1 / bitrate=2200 / ratetol=1.0 / qcomp=0.60 / qpmin=3 

/ qpmax=51 / qpstep=4 / ip_ratio=1.40 / aq=1:1.00
Encoded date                     : UTC 2011-03-30 08:04:59
Tagged date                      : UTC 2011-03-30 09:39:29
Color primaries                  : BT.709-5, BT.1361, IEC 61966-2-4, SMPTE RP177
Transfer characteristics         : BT.709-5, BT.1361
Matrix coefficients              : BT.709-5, BT.1361, IEC 61966-2-4 709, SMPTE RP177

Audio
ID                               : 2
Format                           : AAC
Format/Info                      : Advanced Audio Codec
Format profile                   : LC
Codec ID                         : 40
Duration                         : 2h 1mn
Bit rate mode                    : Variable
Bit rate                         : 384 Kbps
Maximum bit rate                 : 700 Kbps
Channel(s)                       : 6 channels
Channel positions                : Front: L C R, Side: L R, LFE
Sampling rate                    : 48.0 KHz
Compression mode                 : Lossy
Stream size                      : 334 MiB (15%)
Language                         : English

Subtitles: English (.srt file)

More Subtitles: 
http://www.sub-titles.net 
http://subscene.com/

Movie snapshots included in torrent.

All my torrents:  
http://thepiratebay.org/user/PetaFOX
